<svg id="Capa_1" enable-background="new 0 0 512 512" height="64" viewBox="0 0 512 512" width="64" xmlns="http://www.w3.org/2000/svg"><g><path d="m194.5 7.436v408.267c0 46.745-53.275 73.91-90.824 46.068-62.905-46.643-103.676-121.446-103.676-205.771 0-120.184 82.819-221.025 194.5-248.564z" fill="#3f7196"/><path d="m194.5 30.021v385.682c0 13.285-4.303 24.988-11.326 34.297h-77.174c-3.314 0-6 2.686-6 6v2.994c-60.813-46.804-100-120.323-100-202.994 0-41.756 9.997-81.177 27.729-116h16.271c3.314 0 6 2.686 6 6v28c0 3.314 2.686 6 6 6h28c3.314 0 6-2.686 6-6v-48c0-3.314 2.686-6 6-6h28c3.314 0 6-2.686 6-6v-38c0-3.314 2.686-6 6-6h18c3.314 0 6-2.686 6-6v-28c0-3.314 2.686-6 6-6h28c.168 0 .335.007.5.021z" fill="#2b4d66"/><path d="m288.474 509.96c-.886.112-2.211.192-3.91.24-57.332 1.609-104.564-44.726-104.564-102.08v-396.65c23.271-7.225 47.964-11.219 73.554-11.459 142.353-1.332 257.847 112.533 258.443 254.891.549 130.878-97.117 239.056-223.523 255.058z" fill="#fb5858"/><path d="m480 240c0 5.523-4.477 10-10 10h-243v70h153v-30c0-5.523 4.477-10 10-10s10 4.477 10 10v30h40c5.523 0 10 4.477 10 10s-4.477 10-10 10h-213v70h118v-32c0-5.523 4.477-10 10-10s10 4.477 10 10v32h35c5.523 0 10 4.477 10 10s-4.477 10-10 10h-173v47.921c-16.171-1.823-31.885-5.153-47-9.845v-456.606c15.115-4.693 30.829-8.022 47-9.845v48.375h123c5.523 0 10 4.477 10 10s-4.477 10-10 10h-123v70h173c5.523 0 10 4.477 10 10s-4.477 10-10 10h-173v70h243c5.523 0 10 4.477 10 10zm-31.5-42c4.142 0 7.5-3.358 7.5-7.5s-3.358-7.5-7.5-7.5-7.5 3.358-7.5 7.5 3.358 7.5 7.5 7.5zm19-21c4.142 0 7.5-3.358 7.5-7.5s-3.358-7.5-7.5-7.5-7.5 3.358-7.5 7.5 3.358 7.5 7.5 7.5zm-110.5-75.5c0 4.142 3.358 7.5 7.5 7.5s7.5-3.358 7.5-7.5-3.358-7.5-7.5-7.5-7.5 3.358-7.5 7.5zm-96.5-66.5c4.142 0 7.5-3.358 7.5-7.5s-3.358-7.5-7.5-7.5-7.5 3.358-7.5 7.5 3.358 7.5 7.5 7.5zm157 336c-4.142 0-7.5 3.358-7.5 7.5s3.358 7.5 7.5 7.5 7.5-3.358 7.5-7.5-3.358-7.5-7.5-7.5z" fill="#d63030"/><path d="m285 65.5c0 11.874-9.626 21.5-21.5 21.5-3.95 0-7.65-1.065-10.831-2.924-5.416 7.81-14.445 12.924-24.669 12.924-3.651 0-7.149-.652-10.385-1.847-4.002 5.732-9.955 10.001-16.896 11.844 3.331 4.833 5.281 10.69 5.281 17.003 0 16.569-13.431 30-30 30s-30-13.431-30-30c0-13.9 9.453-25.591 22.281-28.997-3.331-4.833-5.281-10.69-5.281-17.003 0-16.569 13.431-30 30-30 3.651 0 7.149.652 10.385 1.847 5.422-7.766 14.425-12.847 24.615-12.847 9.315 0 17.638 4.245 23.14 10.906 3.497-2.461 7.759-3.906 12.36-3.906 11.874 0 21.5 9.626 21.5 21.5z" fill="#ffb52d"/><path d="m282.252 165.564c-4.37 1.171-8.757 1.781-13.087 1.875-4.212 9.086-12.273 16.308-22.703 19.103-15.673 4.199-31.711-2.934-39.418-16.375-.37.112-.743.219-1.119.32-15.315 4.104-30.98-2.614-38.878-15.465l-40.037 10.728c-5.335 1.429-10.818-1.736-12.247-7.071s1.736-10.818 7.071-12.248l40.037-10.728c.41-14.921 10.41-28.442 25.458-32.699-4.687-18.519 6.362-37.426 24.874-42.386 9.915-2.657 19.978-.778 27.984 4.365 4.16-2.437 8.713-4.363 13.595-5.671 29.341-7.862 59.499 9.55 67.361 38.891 7.862 29.34-9.55 59.499-38.891 67.361z" fill="#ffc14f"/><path d="m425.106 246.894c5.858 5.857 5.858 15.355 0 21.213-2.929 2.929-6.768 4.394-10.606 4.394s-7.678-1.465-10.606-4.394l-51.919-51.919c-1.367-1.367-3.583-1.367-4.95 0-.656.656-1.025 1.547-1.025 2.475v35.523c0 4.107-3.165 7.688-7.269 7.811-4.247.127-7.731-3.278-7.731-7.497v-13.837c0-3.118-3.77-4.68-5.975-2.475-4.818 4.818-7.525 11.353-7.525 18.167v97.83c0 4.107-3.165 7.688-7.269 7.811-4.247.127-7.731-3.278-7.731-7.497v-85.337c0-3.118-3.77-4.68-5.975-2.475l-1.419 1.419c-2.929 2.929-6.768 4.394-10.606 4.394s-7.678-1.465-10.606-4.394c-5.858-5.857-5.858-15.355 0-21.213l54.394-54.394-54.394-54.394c-6.028-6.028-5.853-15.91.525-21.714 5.974-5.436 15.277-4.91 20.988.801l54.093 54.093 54.093-54.093c5.711-5.711 15.014-6.237 20.988-.801 6.378 5.804 6.553 15.686.525 21.714l-10.201 10.201c.062.388.095.787.095 1.192v14.686c0 4.107-3.165 7.688-7.269 7.811-4.247.127-7.731-3.278-7.731-7.497v-1.287l-29.287 29.289zm-114.606 145.106c-4.142 0-7.5 3.358-7.5 7.5v5c0 4.142 3.358 7.5 7.5 7.5s7.5-3.358 7.5-7.5v-5c0-4.142-3.358-7.5-7.5-7.5z" fill="#ffe7c0"/><path d="m132.118 185.301-36.705 9.835c-5.335 1.429-10.818-1.737-12.247-7.071l-7.765-28.978c-1.429-5.335 1.736-10.818 7.071-12.247l36.705-9.835c5.335-1.429 10.818 1.737 12.247 7.071l7.765 28.978c1.43 5.334-1.736 10.818-7.071 12.247z" fill="#3493f8"/><path d="m133.318 164.667c-5.648 1.513-11.453-1.838-12.966-7.486s1.838-11.453 7.486-12.966c5.648-1.514 11.453 1.838 12.966 7.486 1.514 5.647-1.838 11.452-7.486 12.966z" fill="#3f7196"/><path d="m213.658 230.745-165.173 44.258c-8.648-32.275 10.505-65.449 42.78-74.097l48.296-12.941c32.275-8.648 65.449 10.506 74.097 42.78z" fill="#ffc14f"/><path d="m213.658 230.745-116.877 31.318c-8.648-32.275 10.505-65.449 42.78-74.097 32.275-8.649 65.449 10.505 74.097 42.779z" fill="#fff36c"/><path d="m142.434 192.89-52.16 13.976c-5.335 1.429-10.818-1.737-12.247-7.071-1.429-5.335 1.736-10.818 7.071-12.248l52.16-13.976c5.335-1.43 10.818 1.736 12.247 7.071s-1.737 10.818-7.071 12.248z" fill="#ffb52d"/><path d="m288.474 509.96c-10.635 1.346-21.474 2.04-32.474 2.04-59.39 0-114.057-20.224-157.489-54.161l-51.648-192.754 164.207-43.999z" fill="#a7d0fc"/><path d="m209.293 448.208c-32.275 8.648-65.449-10.505-74.097-42.78l-37.12-138.536-48.296 12.941c-5.335 1.429-10.818-1.736-12.247-7.071-1.429-5.334 1.736-10.818 7.071-12.247l164.207-43.999c5.335-1.429 10.818 1.736 12.247 7.071 1.342 5.009-1.367 10.148-6.118 11.941l37.134 138.585c8.647 32.273-10.506 65.448-42.781 74.095z" fill="#c8e2fd"/><path d="m206.626 410.533-.004.001c-8.623 2.31-17.486-2.807-19.796-11.43l-29.432-109.84c-2.31-8.623 2.807-17.486 11.429-19.796l.004-.001c8.623-2.31 17.486 2.807 19.796 11.429l29.432 109.84c2.311 8.623-2.806 17.486-11.429 19.797zm14.239-187.584c-1.708-5.045-7.24-7.724-12.385-6.345l-119.472 32.012c-4.372 1.171-7.412 5.133-7.412 9.659 0 6.575 6.237 11.361 12.588 9.659l119.802-32.101c5.548-1.486 8.75-7.356 6.879-12.884z" fill="#e9f3fe"/></g></svg>